<svg id="es63OtE0wcf1" xmlns="http://www.w3.org/2000/svg" xmlns:xlink="http://www.w3.org/1999/xlink" viewBox="0 0 32 32" shape-rendering="geometricPrecision" text-rendering="geometricPrecision"><g transform="matrix(6.548274 0 0-7.361601 33.893486 18.605036)" clip-path="url(#es63OtE0wcf11)"><g><g clip-path="url(#es63OtE0wcf9)"><g><path d="M-0.402983,0.238041c.001278-.006819-.007271-.010646-.063462-.021029-.011874-.011507-.028197-.02616-.038571-.028555-.005634-.005583-.030755-.015676-.072454-.028496-.020859-.006214-.0458-.013945-.074611-.02062s-.061373-.013638-.097404-.020815c-.071602-.016051-.166287-.037966-.273937-.055722l-.169552-.029263c-.014206-.002148-.028524-.004248-.042952-.006299-.000282-.000171-.000537-.000298-.000853-.000477-.019733-.01207-.019324-.017287-.061057-.015395-.023075.000085-.038989,0-.049968.000452l-.025905-.00352c-.122345-.017901-.246745-.02865-.36222-.03968-.05775-.005967-.11325-.008456-.165153-.011516-.051911-.002847-.100217-.005114-.143562-.006725-.042458-.002984-.082555-.004049-.12047-.005362l-.107241-.003606c-.067297-.002105-.126343-.004441-.178084-.004023-.103482-.000383-.178144-.000094-.232348.000682-.108323.003341-.134944.007765-.148241.011635-.013255.008217-.026561.008073-.066539.007672-.020315-.002608-.040817-.003463-.061279-.002557-.014372.000221-.030303.000562-.047002.001423-.01669.001091-.034147.002447-.051596.00399-.06982.006179-.139496.015522-.159135.02414l-.039969.000571c-.013306.000366-.040003.00017-.066607.001364-.02622.009376-.026203.009376-.025794.017704.000802.01669-.012359.017176-.119208.012922-.119712.004646-.146426.005507-.159059.014977-.01168.007479-.025346.011259-.03921.010843-.027797-.014986-.093765-.002455-.19861.020926-.018258.00172-.036417.00436-.054409.00791-.021353.003981-.044325.008107-.064237.009871-.052201.012999-.052176.012991-.038043.020126.028223.014277.00266.024898-.11643.035442-.03037.002592-.060571.006895-.090457.012889-.024498.004901-.040736.008856-.040736.008856-.02535.011303-.025316.011295.002122.016571.014244.006819.014219.006819-.011081.018071-.013169.0015-.077944.017304-.142598.033107-.066002.006436-.169629.030866-.233968.04805-.032144.008754-.067553.017977-.099842.025709-.03234.007416-.061237.015343-.080902.018369-.01761.003391-.034688.009125-.050777.017048.008157.007459.105007-.014977.224906-.040191.059882-.01305.125218-.028802.187844-.043421.06278-.013639.12267-.027277.17118-.039125.065465-.009726.327323-.048221.379959-.05308l.026331-.002293c.000784.008277-.02472.018932-.050991.021225-.013144.00116-.039458.003478-.038588.01178-.012275.009462-.012267.009462-.038555.011772l-.078873.006947c-.024392.008417-.049328.015167-.074636.020202-.034514.008098-.076043.017952-.117274.026723-.082436.017798-.163431.033346-.183096.035596-.026092.003615-.181698.034003-.270297.06336-.063726.018301-.076597.021156-.075131.029169.001492.008217-.009973.018625-.03592.023015s-.0503.016911-.048723.025086c-.012957.002191.001568.0082.02593-.00439.049951-.018651.346203-.079913.488683-.103993.103311-.020168.144516-.00803.041435.012078-.013025.001484-.038802.006513-.067672.012948-.014432.003214-.029647.00682-.044428.010434-.014729.003938-.028981.008132-.041665.011993-.025317.007774-.072991.02079-.128713.034949l-.176831.043472c-.114734.027823-.184179.060367-.216195.058049c0,0-.056438.031965-.030627.027609s.185321-.058347.235425-.075267c.064323-.011806.153672-.032144.204168-.047735l.037506-.007381c-.001168.001261-.001876.002437-.001654.003409l-.019861.004578c-.029834.006819-.075787.033525-.083169.045953.001245.005114.032187.003316.063078.001577.013809-.003529.028327-.003157.041938.001074.001202.005114.060393-.008524.118484-.027277.025398-.010523.052992-.014644.080356-.012002.012957.000051.052611-.005259.107829-.014048.027601-.00439.059097-.009649.093108-.015548.016963-.003111.034659-.00589.052849-.008524l.055747-.008575.115561-.018548.057733-.009769c.001313-.000221.002608-.0004.003921-.000613-.00438.002625-.00714.007283-.007339.012385l-.050053.021165c-.01294.001134-.050846.012786-.076717.015062-.005966.004714-.031402.011081-.066487.018352-.017534.003615-.037506.007451-.058645.01138-.021089.00439-.062294.001424-.084567.006052-.153424.0257-.197749.048885-.19653.057094s.041051.012147.066743.009257c.103993-.003333.093202.014687-.008081.034488-.025572.003069-.051383.005336-.075574.017483-.011499.010033-.049721.015343-.075233.018932.018889.002215.038.001678.056736-.001594.011933-.001662.024992-.004015.038963-.007015.014014-.002805.028982-.005967.0447-.009837.051144-.005762.152384-.025572.229066-.034181.064033-.006334.128193-.011312.12723-.019776l.089733-.007765.076835-.006649c-.011985.009376-.05036.012735-.063163.013843-.038418.003324-.050292.012735-.036653.019929s.01455.015505-.010979.017704c-.075728.014918-.113037.026502-.087508.024302.012786-.001099.013724.007195.013724.007195.000963.008345-.037293.011456-.088275.016102-.038102.004262-.100584.019682-.12596.022529-.024302.011132-.086612.026509-.124723.030771-.023284.00296-.046308.007687-.068874.014142-.024805.006614-.04944.014252-.067724.021003-.012632.001756-.043899.008209-.081311.016562-.037343.008592-.081106.017977-.117913.028922-.149289.033423-.210492.052082-.135088.039501.012564-.002097.047103-.007868.093977-.01675.023433-.004441.049951-.009675.078353-.015608.028598-.005114.059097-.010953.090295-.017389.034352-.006879.070519-.01374.107531-.020457.037071-.006487.07473-.013988.112781-.018864.075864-.010706.151259-.020458.218352-.028496.033482-.004381.065192-.006717.093764-.009138s.054136-.004262.075685-.005625c.04308-.002779.070153-.003538.073537-.001705.013519.00722-.022674.027081-.035298.028129-.029663.002208-.05901.007531-.087559.01588-.024805.006308-.049584.012607-.071329.017611-.017402.004623-.035045.008282-.052849.010962-.089878.005762.001074.008285.014687.015164.013485.005848.140527.003998.152111-.005506-.000946-.008294-.001875-.016597-.014491-.015514l-.012837.001099h.000222c.035937-.019818.06127-.021992.088258-.007543.006742.003614.019562.004611.04799.00323.014218-.000699.032331-.001986.055542-.003844l.086391-.005174c.088318-.005242.226177-.022717.302101-.024106.037872-.001338.081907-.004987.122788-.008524s.0786-.007049.1039-.006973c.050164-.008873.138609-.009828.189063-.010382.063282.00722.101078.008157.113548,0l.063078.000852c.05847.007735.117412.01133.176388.010758.062916.002429.088122-.004953.075549-.00543-.037694-.018156-.012403-.025572.037829-.006896.024348.007809.049803.011606.07537.011243.012564.000477.034599-.000767.061373-.001833.013374-.00046.027933-.001184.043063-.001065s.03084.000656.046533.001654c.037668.002395.094199.003895.15541.005677.030593.001091.062404.001415.093526.003469s.061637.004194.089766.006708c.244316.014321.536818.042765.775423.067852.238673.025802.45139.076196.43141.040335L-0.83505,0.73997c-.028589-.010945.064059-.004083.064059-.004083.012948-.0015.032553-.004381.05174-.005216.016813-.001277.033718-.000528.050352.002233.051817-.004935.065763-.010229.056923-.029459-.022716-.013911-.005566-.035596.020663-.038017s.026245-.002413.003409-.016349c-.013135-.033005-.047487-.019708-.059787-.022589-.038478-.00046-.058424-.030832-.028939-.049618.01397-.005294.027993-.010579.040386-.007672.02859.042006.044948-.008456.106014-.009487.024839.005796.017687-.021592.017687-.021592.010698.011082.012454.002907.015991-.013417.001773-.008166.005311-.024489.005311-.024489.033942-.00722-.00295-.038665.053846-.064638.005438-.024464.00728-.032604-.016306-.046669s-.02582-.066001.001559-.068192.043848-.015548.031011-.018523c-.01368-.001878-.026476-.007834-.036722-.017091-.023918-.014115-.023986-.014132.005328-.024489.019307-.001534.025061-.002029.015275-.013707.03384.000853.042705-.002531.034267-.008865Zm-3.774672.112125c-.009376.006871-.019605.008584-.080927.018856-.051255.007765-.10263.014627-.153237.027157-.101325.024839-.091122.023399-.091778.018207s.028811-.019886.120368-.038068c.029783-.009348.06021-.016507.091037-.021421.030686-.004705.061373-.009317.092443-.011627.031453.000026.03147.000017.022094.006896Zm.782702-.319404l.006819-.000255Z" fill="#d4d6c9"/></g><g><path d="M-4.751374,0.565279c.027235-.007007.262072-.067476.258901-.067476-.003367,0-.141388.022273-.141388.022273-.197502.014764-.137126.039995-.122746.044981.001682.000601.003507.000678.005233.000222Z" fill="#d4d6c9"/></g><clipPath id="es63OtE0wcf9"><path d="M-5.065101,-0.06278h4.665101v2.69806h-4.665101Z"/></clipPath></g></g><clipPath id="es63OtE0wcf11"><path d="M-5.065101,-0.06278h4.665101v2.69806h-4.665101Z"/></clipPath></g></svg>
