<svg id="e17t6scHXWo1" xmlns="http://www.w3.org/2000/svg" xmlns:xlink="http://www.w3.org/1999/xlink" viewBox="0 0 32 32" shape-rendering="geometricPrecision" text-rendering="geometricPrecision"><g transform="matrix(7.408681 0 0 7.66894 33.899053 6.135861)" clip-path="url(#e17t6scHXWo13)"><g><g clip-path="url(#e17t6scHXWo11)"><g><path d="M-0.402983,0.238041c.001278-.006819-.007271-.010646-.063462-.021029-.011874-.011507-.028197-.02616-.038571-.028555-.005634-.005583-.030755-.015676-.072454-.028496-.020859-.006214-.0458-.013945-.074611-.02062s-.061373-.013638-.097404-.020815c-.071602-.016051-.166287-.037966-.273937-.055722l-.169552-.029263c-.014206-.002148-.028524-.004248-.042952-.006299-.000282-.000171-.000537-.000298-.000853-.000477-.019733-.01207-.019324-.017287-.061057-.015395-.023075.000085-.038989,0-.049968.000452l-.025905-.00352c-.122345-.017901-.246745-.02865-.36222-.03968-.05775-.005967-.11325-.008456-.165153-.011516-.051911-.002847-.100217-.005114-.143562-.006725-.042458-.002984-.082555-.004049-.12047-.005362l-.107241-.003606c-.067297-.002105-.126343-.004441-.178084-.004023-.103482-.000383-.178144-.000094-.232348.000682-.108323.003341-.134944.007765-.148241.011635-.013255.008217-.026561.008073-.066539.007672-.020315-.002608-.040817-.003463-.061279-.002557-.014372.000221-.030303.000562-.047002.001423-.01669.001091-.034147.002447-.051596.00399-.06982.006179-.139496.015522-.159135.02414l-.039969.000571c-.013306.000366-.040003.00017-.066607.001364-.02622.009376-.026203.009376-.025794.017704.000802.01669-.012359.017176-.119208.012922-.119712.004646-.146426.005507-.159059.014977-.01168.007479-.025346.011259-.03921.010843-.027797-.014986-.093765-.002455-.19861.020926-.018258.00172-.036417.00436-.054409.00791-.021353.003981-.044325.008107-.064237.009871-.052201.012999-.052176.012991-.038043.020126.028223.014277.00266.024898-.11643.035442-.03037.002592-.060571.006895-.090457.012889-.024498.004901-.040736.008856-.040736.008856-.02535.011303-.025316.011295.002122.016571.014244.006819.014219.006819-.011081.018071-.013169.0015-.077944.017304-.142598.033107-.066002.006436-.169629.030866-.233968.04805-.032144.008754-.067553.017977-.099842.025709-.03234.007416-.061237.015343-.080902.018369-.01761.003391-.034688.009125-.050777.017048.008157.007459.105007-.014977.224906-.040191.059882-.01305.125218-.028802.187844-.043421.06278-.013639.12267-.027277.17118-.039125.065465-.009726.327323-.048221.379959-.05308l.026331-.002293c.000784.008277-.02472.018932-.050991.021225-.013144.00116-.039458.003478-.038588.01178-.012275.009462-.012267.009462-.038555.011772l-.078873.006947c-.024392.008417-.049328.015167-.074636.020202-.034514.008098-.076043.017952-.117274.026723-.082436.017798-.163431.033346-.183096.035596-.026092.003615-.181698.034003-.270297.06336-.063726.018301-.076597.021156-.075131.029169.001492.008217-.009973.018625-.03592.023015s-.0503.016911-.048723.025086c-.012957.002191.001568.0082.02593-.00439.049951-.018651.346203-.079913.488683-.103993.103311-.020168.144516-.00803.041435.012078-.013025.001484-.038802.006513-.067672.012948-.014432.003214-.029647.00682-.044428.010434-.014729.003938-.028981.008132-.041665.011993-.025317.007774-.072991.02079-.128713.034949l-.176831.043472c-.114734.027823-.184179.060367-.216195.058049c0,0-.056438.031965-.030627.027609s.185321-.058347.235425-.075267c.064323-.011806.153672-.032144.204168-.047735l.037506-.007381c-.001168.001261-.001876.002437-.001654.003409l-.019861.004578c-.029834.006819-.075787.033525-.083169.045953.001245.005114.032187.003316.063078.001577.013809-.003529.028327-.003157.041938.001074.001202.005114.060393-.008524.118484-.027277.025398-.010523.052992-.014644.080356-.012002.012957.000051.052611-.005259.107829-.014048.027601-.00439.059097-.009649.093108-.015548.016963-.003111.034659-.00589.052849-.008524l.055747-.008575.115561-.018548.057733-.009769c.001313-.000221.002608-.0004.003921-.000613-.00438.002625-.00714.007283-.007339.012385l-.050053.021165c-.01294.001134-.050846.012786-.076717.015062-.005966.004714-.031402.011081-.066487.018352-.017534.003615-.037506.007451-.058645.01138-.021089.00439-.062294.001424-.084567.006052-.153424.0257-.197749.048885-.19653.057094s.041051.012147.066743.009257c.103993-.003333.093202.014687-.008081.034488-.025572.003069-.051383.005336-.075574.017483-.011499.010033-.049721.015343-.075233.018932.018889.002215.038.001678.056736-.001594.011933-.001662.024992-.004015.038963-.007015.014014-.002805.028982-.005967.0447-.009837.051144-.005762.152384-.025572.229066-.034181.064033-.006334.128193-.011312.12723-.019776l.089733-.007765.076835-.006649c-.011985.009376-.05036.012735-.063163.013843-.038418.003324-.050292.012735-.036653.019929s.01455.015505-.010979.017704c-.075728.014918-.113037.026502-.087508.024302.012786-.001099.013724.007195.013724.007195.000963.008345-.037293.011456-.088275.016102-.038102.004262-.100584.019682-.12596.022529-.024302.011132-.086612.026509-.124723.030771-.023284.00296-.046308.007687-.068874.014142-.024805.006614-.04944.014252-.067724.021003-.012632.001756-.043899.008209-.081311.016562-.037343.008592-.081106.017977-.117913.028922-.149289.033423-.210492.052082-.135088.039501.012564-.002097.047103-.007868.093977-.01675.023433-.004441.049951-.009675.078353-.015608.028598-.005114.059097-.010953.090295-.017389.034352-.006879.070519-.01374.107531-.020457.037071-.006487.07473-.013988.112781-.018864.075864-.010706.151259-.020458.218352-.028496.033482-.004381.065192-.006717.093764-.009138s.054136-.004262.075685-.005625c.04308-.002779.070153-.003538.073537-.001705.013519.00722-.022674.027081-.035298.028129-.029663.002208-.05901.007531-.087559.01588-.024805.006308-.049584.012607-.071329.017611-.017402.004623-.035045.008282-.052849.010962-.089878.005762.001074.008285.014687.015164.013485.005848.140527.003998.152111-.005506-.000946-.008294-.001875-.016597-.014491-.015514l-.012837.001099h.000222c.035937-.019818.06127-.021992.088258-.007543.006742.003614.019562.004611.04799.00323.014218-.000699.032331-.001986.055542-.003844l.086391-.005174c.088318-.005242.226177-.022717.302101-.024106.037872-.001338.081907-.004987.122788-.008524s.0786-.007049.1039-.006973c.050164-.008873.138609-.009828.189063-.010382.063282.00722.101078.008157.113548,0l.063078.000852c.05847.007735.117412.01133.176388.010758.062916.002429.088122-.004953.075549-.00543-.037694-.018156-.012403-.025572.037829-.006896.024348.007809.049803.011606.07537.011243.012564.000477.034599-.000767.061373-.001833.013374-.00046.027933-.001184.043063-.001065s.03084.000656.046533.001654c.037668.002395.094199.003895.15541.005677.030593.001091.062404.001415.093526.003469s.061637.004194.089766.006708c.244316.014321.536818.042765.775423.067852.238673.025802.45139.076196.43141.040335L-0.83505,0.73997c-.028589-.010945.064059-.004083.064059-.004083.012948-.0015.032553-.004381.05174-.005216.016813-.001277.033718-.000528.050352.002233.051817-.004935.065763-.010229.056923-.029459-.022716-.013911-.005566-.035596.020663-.038017s.026245-.002413.003409-.016349c-.013135-.033005-.047487-.019708-.059787-.022589-.038478-.00046-.058424-.030832-.028939-.049618.01397-.005294.027993-.010579.040386-.007672.02859.042006.044948-.008456.106014-.009487.024839.005796.017687-.021592.017687-.021592.010698.011082.012454.002907.015991-.013417.001773-.008166.005311-.024489.005311-.024489.033942-.00722-.00295-.038665.053846-.064638.005438-.024464.00728-.032604-.016306-.046669s-.02582-.066001.001559-.068192.043848-.015548.031011-.018523c-.01368-.001878-.026476-.007834-.036722-.017091-.023918-.014115-.023986-.014132.005328-.024489.019307-.001534.025061-.002029.015275-.013707.03384.000853.042705-.002531.034267-.008865Zm-3.774672.112125c-.009376.006871-.019605.008584-.080927.018856-.051255.007765-.10263.014627-.153237.027157-.101325.024839-.091122.023399-.091778.018207s.028811-.019886.120368-.038068c.029783-.009348.06021-.016507.091037-.021421.030686-.004705.061373-.009317.092443-.011627.031453.000026.03147.000017.022094.006896Zm.782702-.319404l.006819-.000255Z" fill="#d4d6c9"/></g><g><path d="M-4.751374,0.565279c.027235-.007007.262072-.067476.258901-.067476-.003367,0-.141388.022273-.141388.022273-.197502.014764-.137126.039995-.122746.044981.001682.000601.003507.000678.005233.000222Z" fill="#d4d6c9"/></g><g><path d="M-0.582312,0.249915c-.003187-.01356-.011302-.025452-.022768-.033363-.002804-.00179-.005967-.003188-.008907-.004799l-.004501-.002335c-.001705-.000589-.003768-.000853-.005634-.001296l-.022922-.004774c-.006989-.001704-.017499-.002651-.020184-.003094l-.013093-.001705c-.034778-.004125-.069386-.007756-.104036-.010621-.069278-.005898-.138607-.010004-.207987-.012317-.073349-.00231-.160481-.003469-.253376-.000699-.046448.001185-.094319.003964-.14259.00728l-.072557.006342-.082854.009802c-.009275.00122-.018275.004013-.026612.00826-.007746.003956-.01457.009504-.020023.016281s-.008987.014981-.010228.023629c-.000277.001926-.000427.003867-.000452.005813s.0002.004062.000912.005967l.003895.01305.003887.013008c.002055.004679.004672.00901.006351.01403l.006026.015923c.003075.009803.006138.019537.009189.029204.01138.03973.020458.079776.029025.117733.016621.076205.02945.145182.040165.199574.007859.03944.01507.078523.021702.116165.000443.002464.000852.00485.001296.007297l-.06694-.002319-.020969.00474-.005216.001219c-.001536.000786-.002992.001719-.004348.002787-.002887.002266-.005438.004929-.007578.00791-.008247.012897-.012451.027965-.01207.043268-.000349.00797,0,.017159.000307.024396l.000955.014798c.000622.008097.001415.015965.002216.023867-.046558-.001239-.093275-.002316-.140152-.003231.007476-.076435.01577-.15275.025333-.228904.016494-.129642.036952-.265617.066104-.392054.001986-.009377.005115-.022563.012036-.050411.003197-.014074.008234-.031284.01438-.053583.003129-.011081.007305-.022895.011542-.036338.002054-.006819.004986-.013024.007612-.020091.001352-.003477.002745-.007038.004177-.01068.000478-.001253.001048-.00247.001704-.00364l.002225-.004364.004526-.008882.004774-.011977c.001889-.003963.003319-.00813.004262-.012419.001604-.008857.000914-.017978-.002003-.026493-.007661-.019994-.024436-.035109-.045118-.040651-.005852-.00174-.011863-.002896-.017943-.003452l-.017363-.001356-.023109-.001704-.050002-.003657c-.069897-.004901-.152086-.009956-.240651-.014048-.088564-.004262-.183522-.007032-.278863-.007978-.047684-.000341-.095469-.000333-.14259.000648-.023569.000375-.046985.001082-.070153.001926l-.034557.001492-.041495.002267c-.004262.000622-.008583.001117-.012709.001833-.003753.00105-.007383.002502-.010825.00433-.0066.004872-.011875.011319-.015344.018753-.003606.007708-.00643.015758-.00843.024029l-.001585.006129-.000853.003793-.000469.002336c-.00121.006273-.002114.012521-.003017.018591s-.001765.011933-.002804.017593c-.000512.002805-.001075.005549-.001791.008175-.000852.002352-.001253.005745-.003776.006452-.00221-.002527-.003712-.005595-.004355-.00889-.000972-.003171-.001825-.006342-.002634-.009487-.001552-.006354-.003052-.012488-.004501-.018404l-.002157-.008805-.00323-.011934c-.003109-.013335-.0084-.026065-.015659-.037676-.001792-.002517-.003859-.004827-.006163-.006887-.002201-.001984-.004824-.003442-.007671-.004262-.005852-.002049-.012008-.003089-.018208-.003078-.006666.000077-.013221,0-.019605-.000119l-.011738-.000196-.010944-.000136c-.004544,0-.010886,0-.015804.00017-.008899.000278-.017533.003097-.024882.008124-.006954.005025-.012965.011241-.017755.01836-.002391.003448-.004585.007028-.006572.010724s-.00295.006043-.004313.008865c-.002234.005242-.004356.010356-.005967.015258-.000853-.002029-.001645-.004015-.002557-.00607-.001177-.002625-.003922-.008524-.006555-.013442s-.005527-.009772-.00878-.014346c-.00313-.004391-.006808-.008364-.010945-.011823-.003904-.003648-.008876-.005946-.014184-.006555-.010894-.000753-.021833-.000582-.032698.000512l-.021745.002557-.020517.002694c-.027371.003801-.054784.008421-.082436.01449l-.010383.002353-.006529.001568-.008405.0022c-.010891.002272-.021144.00693-.030021.013638-.017688.013462-.025395.036338-.019461.057759.006535.015968.01311.03203.019725.048186.004731.012667.009453.02547.013758.038776.017627.052849.032945.109184.047325.168699v.000068c.021839.089503.039006.180889.053557.274432.007245.046797.013519.094199.019358.1423.002636.024089.005287.048342.007953.072761.002489.027612.005003.055432.007543.083459.000853.003051.001859.006376.002822.0097l.00231.007902c.000494.002611.001895.004963.003955.00664.004277.003315.009096.005865.014244.007535.011555.003238.023422.005238.0354.005967l.024336.001893.023356.001372c.031027.001611.061859.002685.092665.003623.061611.001832.123078.003068.184528.004185l.368306.00566c.106653.001608.213249.003364.319788.005268-.002148.022469-.004322.044938-.006299.067416l-.00803.097174c-.00058.008345-.001577.015471-.002378.023117s-.001662.015088-.003001.022214c-.000959.007075-.002319.014091-.004074.021012l-.002412.009939c-.000853.003188-.002123.005805-.003112.008754-.003251.010199-.008864.019487-.016383.027106-.001926.001705-.003785.00341-.0056.00526l-.007186.004816-.003563.002489-.004364.00225-.008746.004561c-.028333.012131-.057306.022708-.086792.031683-.030763.01011-.061995.020654-.092912.031829-.030831.011329-.061901.022572-.093406.037011-.016309.00748-.032138.015966-.047394.025411-.016946.010594-.032262.023595-.045467.038596-.014103.016405-.024515.03565-.030533.05643-.005293.019146-.007802.038954-.00745.058815.00103.035003.005559.069815.013519.103917.006999.032826.015224.064663.023654.096279.016844.063078.035094.125635.051912.187528.016734.060925.029212.122939.037344.185594.008326.061828.010151.124358.005446.186566-.00244.030398-.007364.060546-.014721.090141-.00687.028617-.01741.056225-.031359.082138-.012321.023926-.030051.044648-.051784.060521-.009733.006666-.020617.011473-.032101.014175-.012188.002611-.024698.003381-.037114.002284-.025255-.002685-.049052-.013152-.068099-.029953-.02059-.018427-.037072-.040982-.048373-.066198-.024584-.052329-.034097-.114119-.035946-.175936-.000916-.063079.004343-.126096.015701-.188151.00531-.031394.012215-.06266.01952-.093858l.012036-.046711.012786-.047735c.01652-.062754.032937-.125593.046234-.190239.006606-.032332.01259-.065047.016196-.099024.00444-.035597.003935-.071637-.0015-.107096-.003664-.019599-.010186-.038555-.019358-.056259-.009568-.017921-.022201-.034028-.037327-.047589-.013947-.012684-.029293-.02374-.04574-.032954-.0152-.008722-.030894-.016555-.047002-.023458-.031283-.013639-.062293-.02472-.093073-.03558-.03038-.01091-.058816-.021199-.086715-.03419-.006985-.002974-.013813-.006302-.020458-.009973l-.020023-.010433c-.012615-.007334-.024825-.015344-.036577-.023995-.021959-.015062-.040182-.034947-.053275-.058134-.005562-.010411-.009091-.021786-.010399-.033517-.000428-.003031-.000678-.006085-.00075-.009146-.000146-.001592-.000203-.003192-.000171-.00479v-.006325c.000307-.007672.000188-.014985.000299-.022495-.000393-.003521-.001373-.006717-.002029-.010084-.00055-.003378-.001705-.00663-.00341-.009598-.00741-.012268-.018714-.021703-.03211-.0268-.003461-.001338-.00687-.002821-.010374-.004049l-.010655-.003273c-.002028-.000648-.003145-.00092-.004193-.001176l-.00341-.000853-.006717-.001576c-.017645-.003862-.034454-.006376-.051144-.008525-.054912-.006716-.108699-.009862-.162409-.012146-.002122-.027004-.004816-.049755-.007467-.067928-.008967-.060257-.020108-.069897-.028308-.010689-.00277.019605-.005063.045919-.007424.076972-.062047-.002072-.12394-.003078-.185824-.003521-.129625-.000852-.259037.000622-.388406.003171l-.097012.002165-.048502.001262-.01213.000332c-.003341-.000077-.005046,0-.00762-.000221-.004698-.000445-.009326-.001453-.013784-.003001-.018153-.006582-.031646-.022039-.035715-.040915-.000546-.002506-.00064-.004262-.001142-.007493l-.001228-.012138-.002446-.024277c-.001705-.016195-.003112-.032391-.005072-.048535-.00046-.0041-.000963-.0082-.001432-.012309l.015079.000435.115415.002753c.076944.001631.153927.002767.23095.00341s.154098.000588.231394-.000955c.038673-.000853.077338-.001952.116412-.004382.019606-.001253.039134-.002753.059524-.005489.001986-.000298.006529-.000852.010348-.001628s.007851-.001355.011644-.002353c.00747-.001546.014682-.004147.021421-.007722.003193-.001715.006164-.003813.008848-.006249.0027-.002333.00471-.00536.005813-.008754.003096-.006871.004616-.014347.00445-.021881v-.00341l.001994-.015189.000801-.009709.001603-.01941.003273-.038801.006819-.077483c.004598-.051616.00957-.10307.014917-.154362s.011286-.102288.018276-.152844c.003455-.025277.007382-.050306.01178-.075089.002361-.012257.004578-.02466.007356-.036576l.002063-.008959.001032-.004475.000545-.002327.001142-.003614c.003154-.009701.005788-.01912.009377-.029067l.002489-.01265.001244-.006333c.000222-.001876.00127-.004731.000802-.005805l-.001066-.008524-.000528-.004262c-.000798-.001539-.001903-.002897-.003248-.00399-.005299-.004745-.011496-.00838-.018224-.010689-.008483-.002595-.017199-.004353-.026024-.00525-.009206-.001194-.018549-.002123-.027899-.003001l-.017526-.001509-.033994-.002506c-.045237-.003009-.090286-.005114-.135327-.006819-.090054-.003358-.179994-.005063-.26982-.005114-.089832-.000154-.17957.001204-.269214.004074-.044814.001478-.089599.003387-.134356.005728l-.067101.00393-.075515.005378c-.009497.001164-.01881.003518-.02772.007007-.008272.003694-.015616.009186-.021498.016077s-.009806.015406-.011209.024429c-.000562.00417-.000562.008396,0,.012565.001293.004514.002836.008954.00462.013297l.005021.01346c.001304.004509.004714.009035.006623.014073l.007194.01663c.003836.010724.008166.020995.011653.032076.014636.043686.026893.089111.037736.134876.021659.091633.038639.184784.05296.278259.005233.03442.00993.068916.014371.103456l-.030252-.000963c-.013894.004372-.029715.004313-.03921.017516-.009372.012636-.014861.027727-.015795.04343-.001287.008004-.001245.017517-.001705.024882v.014286c.000068.009428.000443.018514.000852.027601.001773.036159.005046.071133.008456.106048l.010877.103925.005285.051519.001236.012786.001577.013877.001628.013937.002497.014542c.001763.010164.004096.020222.00699.030124.00144.005114.003861.01074.005847.01605.001126.002703.001952.005328.00341.008073l.004518.008225c.002906.005658.006416.010986.010467.015889.003832.005206.008153.010033.012906.014414.004538.004311.009344.008331.014388.012036l.014781.009615c.017598.009325.035939.017175.054835.023467.017304.006044.033951.011337.050428.016682.032852.010629.064979.021497.096833.033329.028797.009545.055935.023509.080441.041392.020321.015364.034302.037646.039296.062626.005144.0297.005535.060029.00116.089852-.007757.064433-.024967.13127-.042484.197545l-.013639.049857c-.004603.017406-.009334.034769-.013229.052405-.008158.03528-.014483.070958-.018949.106892-.009617.073002-.00867.147009.002813.219741.006055.037501.016426.074177.030908.109295.00754.018327.016727.035934.027448.052602.011424.018101.025393.034464.041477.048587.009202.007943.019345.014725.030201.020193.00607.003024.012401.005495.018915.007382.003358.000852.007135.001926.010229.002515l.008268.001218c.02306.003514.046606.002034.069045-.004338.022756-.006746.043663-.018617.061117-.034702.016051-.014888.029604-.03226.04014-.051451.01844-.034958.030865-.07277.036755-.111852.005991-.036674.008789-.073799.008362-.110957-.001255-.072141-.009245-.144007-.023867-.214661-.0071-.034949-.014934-.069735-.024217-.103993-.009001-.034096-.017951-.066641-.025887-.10003-.01571-.066027-.030184-.133486-.030755-.195737.000281-.030687.004893-.05891.017568-.07872.012121-.02004.03448-.0358.062797-.04926.030355-.013548.061393-.025512.092988-.035843.017048-.006436.033952-.011798.051076-.019538.008524-.003784.017048-.00693.025615-.011277l.025572-.013204c.007493-.00421.014926-.009376.02235-.014107.007658-.004913.01489-.010462.021617-.016588l.010468-.008984c.00329-.00329.00635-.006973.009478-.010467.006423-.006754.012136-.014149.017048-.022069.006241-.009106.011523-.018832.015761-.029024.002052-.004916.004086-.0098.006104-.014653.001739-.00472.003204-.009535.00439-.014423.004987-.017794.008483-.035974.01045-.054349.00127-.016835.002813-.033244.002694-.048255.000204-.009129.000204-.017858.000093-.026373.024345.001142.048587.002506.072779.004262.023338.001705.046524.003768.069274.006495.011329.001407.022632.002898.033466.004799.005404.000955.010817.001918.015897.003069.002617.000528.005114.001117.00751.001705l.003495.000852.000579.000179c.001321.000503.002847.000853.003231.002199l-.000103.002012c0,.000111,0,.000469,0,.000298v.005064c-.000102.003409.000188.007194.000384.010859.000835.015158.003529.030157.008021.044658.002728.0071.005183.014439.008422.021242.003512.006606.006819.013459.010732.019741.015422.023652.034587.044639.056744.06214.020609.016184.042601.030525.06572.042859.011346.005686.022504.012377.034097.017176l.034479.015258c.023015.008601.047061.018011.06884.025393.044036.015804.088301.031846.123676.053131.016263.009089.030481.021429.041767.036252.010296.014414.016862.031154.019111.048724.006172.038358.000767.084157-.006614.129122-.016094.090857-.04112.18307-.065636.275028-.025162.094147-.045177.191194-.049771.291308-.00259.050765-.00002.101662.007671.151907.007737.052999.025865.103947.053344.149921.015091.024423.034251.046083.05665.064041.035694.028653.080271.043947.126037.043242.00754-.000217.015063-.000834.022537-.001849l.011133-.001705c.003827-.000776.007799-.001833.011669-.002796.029803-.008426.056987-.024261.079018-.04603.042015-.041367.065123-.091923.080586-.141814.014513-.049441.022886-.10048.024933-.151967.003481-.100185-.006359-.200389-.029263-.297983-.00341-.016988-.007791-.033704-.011678-.050556-.004416-.016571-.008703-.033678-.013238-.049806l-.02697-.097523c-.017525-.064723-.036014-.129813-.046558-.192473-.004884-.030925-.007365-.061876-.001526-.085036.002503-.010926.007422-.021153.014397-.029927.008243-.009736.017982-.018098.028854-.024771.026655-.015938.054791-.029258.084013-.039773.030763-.011747.062106-.023015.093645-.033704s.063529-.020748.096782-.032809c.008311-.002992.016673-.006104.025384-.009965.00433-.001892.008524-.003529.012948-.005643l.013332-.00693c.002216-.001193.004415-.002267.006649-.003572l.006751-.004492c.004475-.003128.008992-.005864.013331-.009427.008972-.007325.017018-.015714.023961-.024984.006831-.009088.01267-.018881.017415-.029212l.005455-.014738c.001868-.004712.003387-.009556.004544-.014491.004681-.018144.008077-.036596.01016-.055219l.002813-.026612.001978-.025197.003946-.050394c.002705-.033141.005547-.066263.008524-.099364.051815.001074.103624.002256.155428.003546.001602.013894.003205.027839.004807.041716.002975.024575.004066.046771.008524.075301.008337.057912.041441.109337.090704.140903.021372.014144.043862.026522.067246.037011.022339.009985.044502.019131.066488.027439l.0328.012326.016196.005966.013144.005388c.015547.006667.02904.017353.039091.030959.009697.014798.016018.031549.018515.049064.004165.034283.003511.06898-.001944.103081-.005115.036099-.012313.071871-.021557.107139l-.010613.039739c-.003597.013869-.007671.027592-.010868.04158-.00699.027797-.012598.056003-.017628.084337-.0099.057132-.014466.11506-.013638.173038.000355.059401.009843.118395.028129.174913.009718.029823.023824.058031.041853.083697.009973.01405.021909.026598.035443.037259.003597.002796.007672.005379.011499.008004.004262.002412.008456.004825.013016.00693.004744.002149.009642.003939.014653.005353l.007825.002003.006947.001015c.019016.002872.038437.001373.056787-.004382.017774-.005921.034143-.015428.048093-.027933.012862-.011371.024038-.024516.033193-.03904.008721-.01348.016159-.02775.022213-.04262.02368-.058074.031369-.117632.033466-.176115.001471-.058096-.002502-.116203-.011866-.173558-.004688-.028436-.009913-.056779-.016613-.084712-.003052-.014056-.006896-.027873-.010382-.041768L-0.998873,1.642c-.015948-.06341-.03061-.127979-.033244-.188892-.000852-.030056.00214-.058816.013008-.079367.005407-.010532.012929-.019835.022094-.027328.010681-.008577.022337-.015861.034727-.021703.05273-.02616.123744-.039406.187631-.081182.017121-.011121.032537-.024667.045766-.040217.01393-.016567.024295-.035829.030448-.056582.005336-.018434.008814-.037355.010382-.056481l.00531-.059668c-.000801-.007186-.00098-.014636-.002301-.021617-.002313-.006909-.00618-.013196-.011303-.018378-.011079-.010471-.024464-.018194-.039074-.022546l-.009377-.002983-.006964-.001961c-.004569-.001184-.009146-.002395-.013638-.003409-.008985-.002123-.01773-.003793-.026484-.005447-.034838-.006248-.068892-.010357-.102937-.013979-.067987-.007024-.135532-.011644-.203008-.015616-.104735-.006036-.209188-.010306-.313454-.013988-.001074-.014861-.00235-.030644-.003827-.047351l.051357.001338c.056741.001244.113392.002179.169952.002804.113225.000998.225716.001518.339316-.003077.024004-.001082.047973-.002387.072881-.004876l.009461-.001048.004944-.000605.008405-.001211c.010952-.001406.021697-.004113.032008-.008063.004699-.001948.00911-.004529.01311-.007672.003992-.002949.007296-.00673.009683-.011081.002681-.004201.004519-.008882.005413-.013784.000494-.002668.001261-.005216.001525-.007987l-.000255-.008771.002327-.01513.00029-.001884.000093-.001023.000171-.001977.000349-.003956.001373-.015829c.000852-.010569.002088-.021063.003171-.031539.002139-.021062.004492-.042074.007305-.063001.005208-.041938.01184-.083535.019511-.124877s.016972-.082163.028019-.122209c.005535-.020014.011644-.039727.018326-.05914.00341-.009632.00682-.019264.01063-.028615.001798-.004765.003768-.009376.005737-.013954l.002122-.004969.003188-.006947.006615-.01369c.001635-.003529.003027-.007166.004168-.010885l.001705-.010067c.001534-.006469.001502-.013211-.000094-.019665Zm-3.48361.063572c-.0092-.032696-.020341-.064814-.033363-.096185l-.002412-.005506c.000076.000204.000068.000196,0,0l-.000367-.000733c-.00023-.000478-.000597-.000964-.000435-.001526.000358-.001142.001705-.001338.002728-.00133l.073366-.005063.084388-.004697c.056304-.002733.112665-.004773.169083-.00612.121536-.002927.243125-.00304.364769-.000341.060759.001372.12151.00341.181988.006606.030209.001611.060427.003478.090116.005967l.007194.000648.000853.000128c.000929-.000069.000238.000767.000128.001253l-.001015.003631-.004185.018105c-.003069.013408-.005447.02651-.007944.039705-.00462.026231-.008698.052323-.012232.078276-.007152.051997-.013144.103703-.018532.15541s-.010373.103371-.014985.15501l-.012607.146536c-.000102.000759,0,.000802-.001705.000998-.016928.002369-.035596.003844-.05417.005029-.037352.002318-.075472.003409-.113591.004185-.076324.001432-.153066.001279-.229808.000563s-.153586-.00214-.230422-.003947l-.115262-.003043-.026245-.000852c-.012897-.10078-.028828-.201236-.049039-.301197-.013016-.064007-.027652-.127818-.046294-.19151Zm.897419.801063c-.001339.014082-.002796.028599-.0052.043072-.003301.029284-.011735.057758-.024916.084116-.026919.050803-.092562.07704-.15599.099151-.032442.011175-.066248.021924-.098631.036398-.032153.014167-.065303.033499-.088889.063376-.015196.019669-.025816.042479-.031087.066769-.004922.0225-.007151.045506-.00664.068533.001329.043324.006426.086451.015232.128892.008038.041844.017901.08299.028385.123948.010775.041307.021506.080722.030252.12128.018666.080565.028123.162989.028189.245688-.000038.040453-.005039.080749-.014891.119984-.004731.018599-.011698.036556-.020748.05348-.007936.015493-.019114.029095-.032775.039884-.011992.009396-.026487.015053-.041674.016264-.003888.000393-.007802.00047-.011703.00023l-.005967-.000239-.006103-.000938c-.00191-.000214-.003808-.000527-.005686-.000937-.001278-.00046-.002506-.000571-.00387-.001108l-.004194-.001705-.004406-.002404c-.013757-.009089-.025489-.02092-.034463-.034752-.010525-.015436-.019334-.031974-.026271-.04932-.014401-.036501-.023934-.074739-.028351-.113728-.004795-.03986-.005999-.080071-.003597-.120146.002276-.040533.007403-.080854.015343-.120667.007672-.04031.018395-.078719.029911-.120188.011081-.040916.021787-.082138.031095-.12411.009988-.042754.016642-.086217.019904-.13.001568-.023423.000541-.046947-.00306-.070145-.007304-.051014-.035956-.096516-.078805-.125149-.019273-.013176-.03986-.024317-.061432-.033244-.021021-.009001-.041052-.01571-.061186-.023083-.020253-.006964-.040498-.013801-.060717-.020296-.020082-.006512-.040327-.012786-.059156-.019477-.017155-.00521-.03349-.012814-.048519-.022589-.011463-.008948-.019572-.021502-.023015-.03563-.004883-.018346-.008138-.037086-.009726-.056003l-.0134-.126079c-.004466-.041768-.008907-.083536-.01178-.124767-.00075-.010305-.001279-.020517-.001705-.030686l-.000409-.015054v-.013936c-.000033-.003151.000284-.006296.000946-.009377.000392-.001406.001066-.003341.002796-.003358l.004722.000119.014389.000409c.003955.035034.007672.070085.010885.105187l.000222.002208.000392.002983.000852.006018c.000628.004023.001481.008007.002558.011934.002021.007889.004813.015561.008336.022904.021525.045329.067239.074201.117419.074159l.143459-.003069c.190001-.003324.380172-.005114.569337.000418.005242.00017.010459.000434.015701.000613-.000511.004629-.000835.009368-.001363.014167Zm1.389758-.463494c-.01126.083033-.020961.166108-.029587.249226-.076512-.001279-.153134-.002336-.229416-.00329l-.425153-.004373c-.069795-.000767-.139163-.001586-.207986-.00306-.034403-.000759-.06873-.001646-.102579-.003129l-.025214-.00127-.022026-.001509c-.000622,0-.001773.000154-.001628-.000852l-.000077-.000358v-.000162l-.00023-.002284-.001705-.018046-.003409-.036056-.008064-.07196c-.00583-.047905-.01207-.095742-.019375-.143468-.014278-.093475-.032451-.192447-.054349-.285606v0c-.000137-.00058-.00029-.00116-.000426-.001705-.000324-.00139-.00064-.002813-.000972-.004211v0c-.014704-.062609-.031326-.124801-.052542-.18689l-.008968-.024131c-.003043-.008064-.006606-.016272-.009913-.024396-.000622-.001134-.001909-.00341-.000401-.004807.000625-.000664.001453-.001101.002353-.001245l.01201-.00283c.015165-.00341.030576-.006384.046141-.009035s.031249-.004987.047035-.00705l.023015-.00283c.000895-.000094.001807-.000247.002711-.000264.000763.000515.001356.001245.001705.002097l.001568.003307.00445.010127c.005898.013945.011473.028871.017159.044129l.00901.023688c.001756.004322.003196.008166.006316.014491.001263.002544.002707.004994.004322.007331l.001236.001704.000639.000853.001347.001577c.000926.001051.001903.002054.002932.003009s.002171.001904.003333.002761c.001425.001059.002917.002024.004466.00289.002235.001289.004609.002321.007075.003077.01406.004534.029474.000781.039876-.009709.00165-.001657.003139-.003467.004449-.005404.001182-.001719.002231-.003525.003137-.005404.000589-.001195.001104-.002425.001543-.003682l.000725-.0022c.000423-.001402.000776-.002824.001057-.004262l.000349-.002139.000332-.002745.000154-.001423.000307-.002865c.00142-.015003.0036-.029925.006529-.044708.002518-.013458.006332-.026641.011388-.039364.001194-.002608.002677-.005762.002489-.005294.000215-.000401.000472-.000778.000767-.001125.00052-.000772.001428-.00119.002353-.001082l.024277.000358h.001551c.000528.000094.000656.00075.000852.001176l.000503.001458.002072.007492c.008941.03379.016408.06942.025026.102775.003584.015027.008201.029788.013818.04418.003499.008928.008682.0171.015266.024072.004018.00426.00867.007875.013792.010714.002185.00102.004434.001894.006734.002617.003094.001141.006279.002017.009521.002617.003842-.000991.007588-.002323.011192-.003981l.006939-.00329c.005156-.002308.009658-.005861.013101-.01034.005817-.006912.01037-.014795.013451-.023287.004985-.013986.008711-.028389.011133-.043038.006401-.033789.010979-.070963.017985-.105289l.001705-.007629c.00013-.000484.000289-.000959.000478-.001424.000238-.00121.001449-.00121.002429-.001176l.020048-.000997.029707-.001194c.01981-.000767.039705-.001176.059574-.001619.039799-.000622.07964-.00098.11955-.00058.07979.000569.159655.002592.239593.006069s.159817.00774.239687.013358c.039944.002557.079862.005591.119789.008754l.029331.002276c.00102-.000001.002033.000163.003.000486s.001638.001126.001859.002096-.000554.001842-.000938.002711l-.001705.00335-.000426.000852-.000852.002183-.001859.004654-.007364.018659c-.005038.012487-.00826.024498-.012454.036781s-.007067.024319-.010613.036483-.006725.024285-.009555.036397c-.012368.048494-.022069.096961-.031633.145489-.018625.09702-.03361.194296-.046822.291743Zm.265506.256062c-.000852-.007135-.001704-.014388-.002446-.021404-.000759-.007569-.001389-.015011-.001824-.022162l-.000145-.002285v-.000085-.000187c-.000085-.000299.000085-.000546.000392-.000478l.052125.001356c.002761.016238.005412.03199.007952.047095-.014729-.0005-.029464-.001003-.044205-.001509-.003955-.000136-.007928-.000205-.011849-.000341Zm.106244.147662c.000852-.017722.000852-.041589-.000222-.071602.046792.001534.093571.003216.14034.005046.094617.003955.189532.008524.283637.015804.04701.003708.093918.008047.139709.014405.022802.003214.045535.006965.066487.01207.004987.001253.010673.002779.014491.004066.0012.000377.002369.000847.003495.001407s.002197.001318.002941.002361c.00058.001185,0,.002557,0,.003776-.001273.013815-.002534.027516-.003785.041103-.001182.014232-.003783.028309-.007765.042024-.003267.010896-.008629.021051-.015787.029893l-.005651.006496c-.002102.002166-.004322.004215-.006649.006137-.004668.004302-.009686.008208-.015002.011678-.02399.015337-.049633.027918-.076444.037506-.027276.010143-.058815.019665-.090022.033005-.016492.006811-.032378.015006-.047487.024498-.016788.010582-.031722.023852-.044206.039278-.012679.016062-.022247.03435-.028214.053924-.005406.018067-.008654.036711-.009675.055542-.001415.034264.00069.068582.006282.102416.00491.032775.011507.064664.018753.096194.003597.015795.007535.031394.011422.047036l.011874.04597c.015323.05928.025544.119763.03055.180786.005351.059529.002347.119515-.008924.178212-.005394.027128-.014815.053296-.027951.077637-.005782.010477-.012995.0201-.021429.028589-.006771.006777-.015006.011909-.024072.015003-.008382.002459-.017251.002753-.025777.000852-.007934-.002504-.015093-.007003-.02079-.013067-.017788-.018772-.031475-.04104-.040191-.065388-.02002-.055304-.030044-.113729-.029604-.172544-.000206-.060974.005818-.121811.017978-.181561.005966-.030141.013374-.060103.02154-.089895l.012632-.047538c.0037-.016119.007621-.032119.011082-.048357.002957-.016511.006819-.032545.008933-.049482l.003623-.025172.002352-.025793c.003485-.036717.000925-.073757-.007578-.109645-.005216-.020318-.013864-.039595-.025572-.057-.012592-.017641-.028371-.032773-.046524-.044615-.004339-.003035-.008831-.005114-.013263-.007672-.004319-.002517-.008791-.004761-.013392-.006717l-.013408-.005685-.01132-.004364c-.014843-.005569-.02951-.011221-.044001-.016955-.028214-.010836-.055816-.023203-.082683-.037045-.023416-.011277-.044259-.027256-.061228-.046942l-.005115-.00687c-.001602-.002362-.002821-.00497-.004313-.007399-.002867-.005083-.005373-.010361-.007501-.015795-.001892-.005805-.003895-.011559-.005413-.017781-.001142-.006504-.003077-.012454-.003665-.019444-.001858-.012377-.003324-.030149-.005114-.045919l-.005601-.047035c.01989.000568.039779.001167.059669.001798.008822.049721.016451.086766.023645.103866.007135.017235.012173.007535.013903-.031096Zm.741471-.772533l-.001969.004569c-.00225.005242-.004492.010493-.006486.015752-.004262.01051-.008022.021063-.011781.031607-.007296.021129-.013897.042339-.019801.063632-.011792.042586-.021657.085368-.029595.128347-.008039.042952-.014952.08599-.020373.129087-.002941.021532-.005379.043089-.007629.064647-.001134.010783-.002446.021548-.003307.032331l-.002233.025146-.000231.002805c-.000068.000852,0,.002063-.001048.002361-.001758.00066-.00359.001101-.005455.001313l-.007468.00092-.012095.001194-.02472.001875c-.033346.00208-.067289.003111-.101197.003836-.067903.001346-.136027.001278-.204031.00069s-.135959-.001867-.203725-.003546l-.094148-.002642c-.008814-.081473-.019989-.166372-.034829-.253514-.009334-.055218-.019852-.111221-.033474-.167974-.006763-.02938-.015207-.058346-.025291-.086758l-.000852-.002293-.000707-.001543c-.000418-.001005-.001236-.002003-.000853-.003154.000853-.002327.003683-.002557.005779-.002702l.061288-.00687.072455-.006078.072641-.004193c.024192-.001305.048425-.001705.072531-.002558.107676-.003409.215829-.001858.32376.004143.053983.002762.107906.007015.161582.012241.013439.001267.026828.002687.040165.004262l.036423.004432c.00237.00052.005183.000128.007237.001756.000973.000842.001377.002168.00104.00341-.000477.001201-.001125.002293-.001603.003469Z" fill="#0094ff"/></g><clipPath id="e17t6scHXWo11"><path d="M-5.065101,-0.06278h4.665101v2.69806h-4.665101Z"/></clipPath></g></g><clipPath id="e17t6scHXWo13"><path d="M-5.065101,-0.06278h4.665101v2.69806h-4.665101Z"/></clipPath></g></svg>
