<svg id="enbQFJcdXjA1" xmlns="http://www.w3.org/2000/svg" xmlns:xlink="http://www.w3.org/1999/xlink" viewBox="0 0 6.7 6.7" shape-rendering="geometricPrecision" text-rendering="geometricPrecision"><g transform="translate(7.076845 1.509083)"><g clip-path="url(#enbQFJcdXjA14)"><g><g clip-path="url(#enbQFJcdXjA12)"><g><path d="M-0.40427,0.340693c.00183-.00976-.010406-.015238-.090828-.030098-.016994-.016469-.040357-.037441-.055204-.040869-.008065-.007991-.044018-.022436-.103699-.040784-.029854-.008894-.06555-.019959-.106786-.029512s-.087839-.01952-.139408-.029792c-.102479-.022972-.237995-.054338-.392067-.079751l-.242668-.041882c-.020333-.003074-.040825-.006079-.061475-.009015-.000403-.000244-.000769-.000427-.00122-.000684-.028243-.017275-.027658-.024741-.087388-.022033-.033025.000122-.055802,0-.071516.000647l-.037075-.005039c-.175105-.025619-.35315-.041003-.518422-.05679-.082654-.00854-.162087-.012102-.236372-.016482-.074298-.004075-.143434-.00732-.205471-.009626-.060767-.00427-.118156-.005795-.172421-.007673l-.153486-.005161c-.096318-.003013-.180827-.006356-.25488-.005758-.148107-.000549-.254965-.000135-.332544.000976-.155036.004782-.193137.011114-.212168.016652-.018971.011761-.038015.011554-.095233.01098-.029076-.003732-.058419-.004956-.087705-.00366-.020569.000318-.04337.000806-.06727.002038-.023887.001561-.048872.003501-.073846.005709-.099929.008845-.199651.022216-.227759.03455l-.057205.000818c-.019044.000524-.057254.000244-.09533.001952-.037527.01342-.037503.01342-.036917.025339.001147.023887-.01769.024583-.170615.018495-.171335.006649-.20957.007881-.22765.021435-.016718.010705-.036277.016114-.056119.015518-.039784-.021447-.134199-.003513-.284258.029951-.026131.002461-.052121.00624-.077871.011322-.030561.005697-.06344.011602-.091939.014127-.074712.018605-.074675.018593-.054448.028804.040394.020435.003807.035636-.166638.050727-.043467.003709-.086691.009868-.129465.018446-.035062.007015-.058303.012676-.058303.012676-.036283.016177-.036234.016165.003038.023716.020386.00976.020349.00976-.01586.025864-.018849.002147-.111556.024766-.204092.047384-.094464.009211-.242778.044176-.334862.068771-.046006.012529-.096684.02573-.142897.036795-.046287.010614-.087644.02196-.115789.026291-.025206.004853-.049648.01306-.072675.0244.011675.010674.15029-.021436.321894-.057523.085704-.018678.179216-.041223.268848-.062146.089852-.01952.175569-.03904.244998-.055998.093695-.01392.468476-.069014.54381-.075968l.037685-.003282c.001123.011846-.035379.027096-.072979.030378-.018813.001659-.056474.004977-.055229.01686-.017568.013542-.017556.013542-.05518.016848l-.112886.009943c-.034911.012047-.070601.021707-.106822.028914-.049397.01159-.108835.025693-.167846.038246-.117985.025474-.233908.047726-.262053.050947-.037344.005173-.260053.048665-.386858.090682-.091207.026193-.109628.03028-.10753.041748.002135.01176-.014274.026656-.05141.032939s-.071992.024205-.069735.035905c-.018544.003135.002245.011736.037112-.006283.071491-.026694.495498-.114374.699419-.148839.147863-.028865.206837-.011492.059304.017287-.018642.002123-.055534.009321-.096855.018532-.020654.004599-.042431.00976-.063586.014933-.021081.005636-.041479.011638-.059633.017165-.036233.011126-.104467.029755-.184218.050019l-.253086.06222c-.164211.03982-.263603.086399-.309426.083081c0,0-.080775.045749-.043834.039515s.265237-.083508.336948-.107725c.092061-.016897.21994-.046005.292212-.068319l.053679-.010565c-.001671.001805-.002684.003489-.002367.00488l-.028425.006551c-.0427.00976-.108469.047982-.119034.06577.001781.00732.046066.004745.090279.002257.019764-.005051.040543-.004519.060023.001537.00172.00732.086436-.0122.169578-.03904.036351-.01506.075844-.020959.115009-.017177.018543.000073.075297-.007527.154328-.020106.039503-.006282.084582-.01381.133259-.022252.024278-.004453.049605-.00843.07564-.0122l.079787-.012273.165394-.026547.082629-.013981c.001879-.000317.003733-.000573.005612-.000878-.006268.003757-.010218.010423-.010504.017726l-.071638.030292c-.018519.001623-.072772.0183-.109798.021557-.00854.006747-.044945.01586-.09516.026267-.025095.005173-.053679.010662-.083935.016287-.030182.006283-.089156.002037-.121035.008662-.219585.036782-.283025.069966-.28128.081714s.058755.017385.095525.013249c.148839-.00477.133393.021021-.011565.049361-.0366.004392-.073541.007637-.108165.025022-.016457.014359-.071161.02196-.107676.027096.027036.00317.054388.002401.081203-.002281.01708-.002379.03577-.005747.055765-.010041.020057-.004014.04148-.00854.063976-.014079.0732-.008247.218098-.036599.327848-.048921.091645-.009065.183474-.016189.182095-.028304l.128428-.011114.10997-.009516c-.017153.01342-.072077.018227-.090401.019813-.054985.004758-.071979.018226-.05246.028523s.020826.022192-.015713.025339c-.108384.02135-.161783.03793-.125244.034782.0183-.001574.019642.010297.019642.010297.001378.011944-.053375.016396-.126342.023045-.054534.0061-.143959.02817-.180278.032245-.034782.015933-.123963.037941-.178508.044041-.033325.004236-.066278.011002-.098575.02024-.035502.009467-.07076.020398-.096928.03006-.018081.002513-.06283.011749-.116375.023705-.053448.012297-.116082.025729-.168761.041394-.213669.047836-.301264.074541-.193344.056534.017983-.003001.067417-.01126.134504-.023973.033538-.006356.071491-.013847.112141-.022338.040931-.00732.084582-.015676.129234-.024887.049165-.009846.100929-.019667.153901-.02928.053057-.009284.106956-.02002.161417-.026998.108579-.015323.216487-.02928.312512-.040785.047921-.00627.093304-.009613.134198-.013078s.077482-.0061.108323-.008052c.061658-.003977.100405-.005063.105248-.00244.019349.010334-.032451.038759-.050519.04026-.042454.00316-.084458.010778-.125317.022728-.035502.009028-.070967.018044-.102089.025205-.024905.006617-.050157.011854-.075639.015689-.128636.008247.001537.011858.02102.021704.0193.008369.201127.005722.217707-.007881-.001354-.011871-.002684-.023754-.02074-.022204l-.018373.001574h.000317c.051435-.028365.087693-.031476.126318-.010797.00965.005173.027999.0066.068685.004624.02035-.001001.046274-.002843.079495-.005503l.123645-.007405c.126403-.007503.323712-.032513.432376-.034501.054204-.001916.117229-.007137.17574-.0122s.112495-.010089.148704-.00998c.071796-.0127.198382-.014066.270593-.014859.090572.010333.144666.011675.162515,0l.090279.00122c.083683.01107.168044.016215.252452.015396.090047.003477.126122-.007088.108127-.007771-.053947-.025986-.01775-.0366.054143-.00987.034847.011176.07128.016611.107872.016092.017982.000683.049519-.001098.087839-.002623.019141-.000659.039979-.001696.061634-.001525s.044139.000939.066599.002367c.053911.003428.134821.005575.222428.008125.043785.001561.089315.002025.133857.004965s.088217.006002.128477.009601c.349673.020496.768312.061207,1.109811.097111.341596.036929.646044.109055.617448.05773l-.067685-.025888c-.040919-.015665.091682-.005844.091682-.005844.018531-.002147.046591-.00627.074053-.007466.024063-.001828.048258-.000754.072065.003196.074163-.007063.094122-.014639.08147-.042162-.032512-.019911-.007966-.050947.029573-.054412s.037563-.003452.00488-.023399c-.0188-.047238-.067966-.028206-.08557-.03233-.05507-.000659-.083618-.044127-.041419-.071015.019996-.007576.040065-.01514.057803-.01098.040919.060121.06433-.012103.15173-.013579.035551.008296.025315-.030902.025315-.030902.015311.01586.017824.00416.022887-.019203.002538-.011687.007601-.03505.007601-.03505.048579-.010333-.004222-.055338.077066-.092512.007784-.035013.010419-.046664-.023338-.066794s-.036954-.094464.002232-.097599.062757-.022252.044384-.02651c-.019579-.002689-.037894-.011212-.052558-.024461-.034232-.020203-.03433-.020227.007625-.03505.027633-.002196.035868-.002904.021863-.019618.048433.00122.061121-.003623.049043-.012687Zm-5.402435.160477c-.01342.009833-.02806.012285-.115826.026986-.073358.011114-.146886.020935-.219317.038869-.14502.03555-.130417.033488-.131356.026059s.041236-.028463.172274-.054485c.042627-.013379.086175-.023625.130295-.030658.04392-.006735.087839-.013335.132308-.016641.045017.000037.045042.000024.031622.00987Zm1.120229-.457142l.00976-.000366Z" fill="#d4d6c9"/></g><g><path d="M-6.62783,0.809046c.038979-.010028.375085-.096574.370547-.096574-.004819,0-.20236.031878-.20236.031878-.282671.02113-.196259.057242-.175678.064379.002408.000859.005019.00097.007491.000317Z" fill="#d4d6c9"/></g><g><path d="M-0.660931,0.357687c-.004562-.019408-.016176-.036428-.032586-.04775-.004014-.002562-.00854-.004563-.012749-.006869l-.006441-.003343c-.00244-.000841-.005393-.00122-.008064-.001854l-.032806-.006832c-.010004-.00244-.025046-.003794-.028889-.004429l-.018739-.00244c-.049776-.005904-.099307-.011101-.1489-.015201-.099152-.008442-.198378-.014318-.297677-.017628-.10498-.003307-.229687-.004966-.362641-.001001-.066477.001696-.134992.005673-.20408.010419l-.103845.009077-.118583.014029c-.013276.001746-.026157.005744-.038088.011822-.011087.005662-.020853.013603-.028657.023302s-.012863.021442-.01464.033818c-.000395.002757-.000611.005536-.000647.00832-.000158.002906.000287.005814.001306.00854l.005575.018678.005563.018617c.00294.006698.006686.012896.009089.020081l.008625.02279c.0044.014029.008784.027962.013152.041796.016287.056864.02928.114179.04154.168505.02379.109067.042151.207788.057486.285636.011249.056449.02157.112385.031061.16626.000635.003526.00122.006942.001854.010443l-.095805-.003318-.030012.006783-.007466.001744c-.002198.001126-.004282.002462-.006222.00399-.004132.003242-.007783.007054-.010846.011321-.011804.018458-.01782.040024-.017275.061927-.0005.011407,0,.024558.000439.034916l.001367.021179c.00089.01159.002025.02285.003172.034159-.066636-.001773-.133499-.003314-.200591-.004623.0107-.109397.02257-.218622.036258-.327616.023607-.185548.052887-.38016.09461-.561121.002843-.01342.00732-.032293.017227-.07215.004575-.020142.011785-.044774.020581-.076689.004477-.015859.010455-.032768.016518-.052008.002941-.00976.007137-.018641.010895-.028755.001936-.004977.003928-.010073.005978-.015286.000685-.001794.001501-.003535.00244-.00521l.003184-.006246.006478-.012712.006832-.017141c.002704-.005673.004751-.011637.0061-.017775.002295-.012677.001308-.02573-.002867-.037917-.010964-.028617-.034973-.050249-.064574-.058182-.008376-.00249-.016978-.004145-.025681-.004941l-.024851-.001939-.033074-.00244-.071564-.005234c-.100039-.007015-.21767-.01425-.344427-.020106-.126757-.006099-.262663-.010064-.399119-.011419-.068246-.000488-.136639-.000475-.20408.000928-.033732.000536-.067245.001549-.100405.002757l-.049458.002135-.059389.003245c-.0061.00089-.012285.001598-.01819.002623-.005372.001503-.010567.003581-.015494.006197-.009446.006973-.016995.016201-.02196.02684-.005161.011032-.009203.022553-.012065.034392l-.002269.008771-.00122.005429-.000671.003343c-.001733.008979-.003026.017922-.004319.026608s-.002526.01708-.004014.02518c-.000732.004014-.001537.007943-.002562.0117-.00122.003367-.001793.008223-.005404.009235-.003163-.003618-.005314-.008007-.006235-.012724-.00139-.004538-.00261-.009077-.003769-.013578-.002221-.009093-.004368-.017873-.006442-.02634l-.003086-.012602-.004624-.01708c-.00445-.019086-.012022-.037306-.022411-.053924-.002566-.003603-.005524-.006909-.008821-.009857-.00315-.00284-.006905-.004926-.01098-.0061-.008374-.002932-.017186-.004421-.026059-.004404-.00954.000109-.018922,0-.028059-.000171l-.0168-.000281-.015664-.000195c-.006503,0-.01558,0-.022619.000244-.012737.000398-.025093.004432-.035611.011627-.009954.007193-.018557.016089-.025413.026278-.003421.004935-.006562.010059-.009406.015348s-.004221.008649-.006173.012687c-.003196.007503-.006234.014823-.00854.021838-.00122-.002903-.002354-.005746-.00366-.008686-.001683-.003758-.005612-.0122-.009381-.019239s-.00791-.013986-.012566-.020533c-.00448-.006284-.009744-.011971-.015665-.016921-.005587-.005222-.012703-.00851-.020301-.009382-.015592-.001078-.031247-.000833-.046798.000732l-.031122.00366-.029365.003855c-.039174.005442-.078409.012054-.117985.02074l-.01486.003367-.009345.002245-.012029.003148c-.015589.003252-.030263.009919-.042968.01952-.025315.019267-.036346.052008-.027852.082666.009353.022854.018763.045843.02823.068966.006771.018129.01353.036453.019691.055497.025229.075639.047152.156268.067734.241448v.000097c.031256.128099.055826.258894.076651.392776.01037.066977.019349.13482.027706.203664.003774.034477.007568.06919.011383.104138.003562.03952.007161.079336.010797.119449.00122.004368.002659.009126.004038.013884l.003306.011309c.000707.003737.002712.007103.005661.009504.006122.004744.013019.008393.020386.010785.016538.004633.033522.007496.050666.008539l.034831.002709.033427.001964c.044408.002306.088535.003843.132625.005185.088181.002623.176154.004392.264103.00599l.527132.008101c.152645.002302.305209.004815.457691.007539-.003074.032159-.006185.064318-.009016.096489l-.011492.139079c-.00083.011943-.002257.022143-.003404.033086s-.002379.021594-.004294.031793c-.001373.010126-.00332.020167-.005832.030072l-.003452.014225c-.00122.004563-.003038.008309-.004453.01253-.004653.014597-.012687.02789-.023448.038795-.002758.00244-.005417.00488-.008016.007528l-.010284.006893-.0051.003562-.006246.003221-.012517.006527c-.040551.017363-.082019.032501-.124219.045347-.04403.014469-.08873.02956-.132979.045554-.044127.016214-.088596.032305-.133686.052972-.023343.010704-.045997.02285-.067832.036368-.024254.015162-.046174.033771-.065074.055241-.020184.023479-.035087.051022-.0437.080763-.007575.027403-.011166.055753-.010662.084179.001474.050097.007956.099922.019349.148729.010016.046982.021789.092548.033854.137797.024107.09028.050227.179814.074298.268398.023949.087197.041808.175953.053447.265628.011917.088489.014529.177984.007796.267018-.003493.043508-.01054.086656-.021069.129014-.009833.040957-.024919.08047-.044884.117558-.017633.034244-.04301.063902-.074114.086619-.013931.009542-.029508.016421-.045945.020289-.017443.003736-.035348.004838-.053118.003269-.036146-.003843-.070205-.018824-.097465-.04287-.02947-.026374-.053059-.058655-.069234-.094744-.035184-.074895-.0488-.163332-.051447-.251806-.00131-.090281.006216-.180473.022472-.269288.007601-.044932.017483-.089681.027938-.134333l.017226-.066855.0183-.068319c.023643-.089816.04714-.179753.066172-.272277.009455-.046274.018019-.093097.02318-.141726.006355-.050948.005632-.10253-.002147-.153279-.005244-.028052-.014579-.055181-.027706-.08052-.013694-.025649-.031775-.048702-.053423-.068112-.019962-.018153-.041925-.033977-.065465-.047164-.021755-.012484-.044216-.023694-.06727-.033574-.044774-.01952-.089157-.03538-.133211-.050923-.04348-.015615-.084179-.030341-.124109-.048933-.009996-.004257-.019769-.009021-.02928-.014274l-.028657-.014933c-.018056-.010496-.035531-.021961-.05235-.034342-.031429-.021557-.057511-.050017-.076249-.083204-.007961-.0149-.013012-.03118-.014884-.04797-.000612-.004338-.00097-.008709-.001073-.01309-.000208-.002279-.00029-.004568-.000244-.006856v-.009053c.000439-.01098.000268-.021447.000427-.032195-.000562-.005039-.001965-.009614-.002904-.014433-.000787-.004835-.00244-.009488-.00488-.013737-.010606-.017558-.026785-.031061-.045957-.038356-.004953-.001915-.009833-.004038-.014847-.005795l-.01525-.004685c-.002904-.000927-.004502-.001317-.006002-.001683l-.00488-.00122-.009614-.002257c-.025254-.005527-.049312-.009126-.073199-.0122-.078592-.009614-.155573-.014115-.232444-.017385-.003038-.038649-.006893-.071211-.010687-.097221-.012835-.086241-.02878-.100039-.040516-.015298-.003965.028059-.007247.06572-.010626.110164-.088803-.002964-.177387-.004404-.265958-.005038-.185523-.00122-.370742.00089-.555899.004538l-.138847.003099-.069417.001806-.017361.000475c-.004782-.000109-.007222,0-.010907-.000317-.006723-.000637-.013346-.002079-.019727-.004294-.025982-.009421-.045293-.031543-.051117-.05856-.000781-.003586-.000915-.0061-.001635-.010723l-.001757-.017373-.003501-.034745c-.00244-.02318-.004453-.04636-.007259-.069466-.000659-.005868-.001379-.011737-.00205-.017617l.021582.000622.165186.003941c.110125.002334.220306.003961.330544.00488.110262.000793.220549.000842.331178-.001367.05535-.00122.110689-.002793.166613-.00627.02806-.001794.05601-.003941.085192-.007857.002843-.000427.009345-.00122.014811-.00233s.011236-.00194.016665-.003367c.010691-.002214.021014-.005936.030658-.011053.00457-.002454.008823-.005457.012664-.008943.003864-.003339.006742-.007672.00832-.012529.004431-.009834.006607-.020534.006368-.031317v-.00488l.002855-.02174.001147-.013896.002293-.027779.004685-.055534.00976-.110897c.00658-.073874.013696-.147517.02135-.220928s.016152-.146398.026156-.218756c.004945-.036176.010565-.071999.016861-.107468.003379-.017544.006551-.035295.010528-.05235l.002952-.012822.001477-.006405.00078-.003331.001635-.005172c.004514-.013884.008284-.027365.01342-.041602l.003562-.018104.001782-.009065c.000317-.002684.001817-.006771.001146-.008308l-.001525-.0122-.000756-.0061c-.001141-.002202-.002724-.004145-.004648-.005709-.007584-.006793-.016454-.011995-.026083-.015299-.012141-.003714-.024616-.006231-.037247-.007515-.013176-.001708-.026547-.003038-.03993-.004295l-.025083-.002159-.048653-.003587c-.064745-.004306-.129221-.00732-.193685-.00976-.128888-.004806-.257613-.007246-.386175-.00732-.128571-.000219-.257007.001725-.385309.005832-.064139.002115-.128237.004847-.192294.008198l-.096038.005624-.108078.007699c-.013593.001665-.026923.005034-.039674.010028-.011839.005287-.02235.013147-.030769.023009s-.014034.022049-.016042.034965c-.000805.005967-.000805.012015,0,.017982.00185.006462.004058.012815.006612.019032l.007186.019264c.001866.006453.006746.012932.009479.020142l.010297.023802c.00549.015347.011687.030048.016677.045908.020947.062524.03849.127537.054009.193038.031.131149.055302.264469.075798.398253.00749.049263.014212.098636.020569.14807l-.043298-.001378c-.019886.006258-.042529.006173-.056119.02507-.013413.018084-.021269.039683-.022607.062159-.001842.011455-.001781.02507-.00244.035611v.020447c.000098.013493.000635.026498.00122.039503.002538.051752.007223.101808.012103.151779l.015567.148741.007564.073736.001769.0183.002257.019861.00233.019947.003574.020813c.002523.014548.005863.028942.010004.043114.002062.00732.005527.015372.008369.022973.001611.003867.002794.007625.00488.011553l.006466.011773c.00416.008098.009183.015722.014982.02274.005483.007451.011669.01436.01847.02063.006496.00617.013374.011923.020594.017227l.021154.013761c.025187.013347.051438.02458.078482.033586.024766.00865.048592.016226.072175.023876.047018.015213.092999.030768.13859.047701.041215.013662.080056.033648.11513.059243.029084.021989.049094.053879.056242.089632.007361.042508.007921.085916.001659.128599-.011102.092219-.035733.187878-.060804.282732l-.01952.071357c-.006588.024913-.013359.049764-.018934.075005-.011677.050493-.020729.101557-.02712.152987-.013765.104483-.012409.210404.004025.3145.008666.053674.023511.106165.044237.156427.010792.026231.023941.051429.039284.075286.016351.025906.036344.049326.059364.069539.01317.011368.027687.021075.043225.028901.008688.004329.017748.007865.027071.010566.004807.00122.010211.002757.01464.003598l.011834.001745c.033004.005029.066704.002911.098819-.00621.032569-.009655.062492-.026645.087473-.049665.022972-.021309.04237-.046172.057449-.073639.026392-.050033.044175-.104151.052606-.160087.008575-.052489.012579-.105624.011968-.158805-.001797-.10325-.013233-.206107-.034159-.30723-.010163-.050019-.021375-.099807-.03466-.148838-.012883-.0488-.025693-.095379-.037051-.143166-.022485-.0945-.0432-.19105-.044018-.280146.000403-.043919.007003-.084313.025144-.112666.017349-.028682.049349-.051239.089877-.070503.043446-.019391.087868-.036514.133088-.0513.0244-.009211.048593-.016885.073102-.027962.0122-.005417.0244-.009919.036661-.016141l.036599-.018897c.010724-.006027.021362-.01342.031988-.020191.010961-.007032.02131-.014974.030939-.023741l.014982-.012859c.004709-.004709.009089-.009979.013566-.014981.009193-.009666.017369-.02025.0244-.031586.008931-.013032.016491-.026953.022557-.04154.002936-.007036.005848-.014026.008735-.020972.002489-.006754.004587-.013647.006283-.020642.007139-.025468.012142-.051487.014957-.077787.001818-.024094.004026-.047579.003856-.069063.000292-.013066.000292-.025559.000134-.037747.034843.001635.069539.003587.104162.0061.033404.00244.066587.005393.099149.009297.016213.002013.03239.004148.047896.006868.007735.001367.015482.002745.022753.004392.003746.000757.00732.001598.010748.00244l.005002.00122.00083.000256c.001891.00072.004075.00122.004624.003148l-.000147.002879c0,.000159,0,.000671,0,.000427v.007247c-.000146.00488.000269.010297.000549.015542.001195.021695.005051.043161.01148.063916.003904.010162.007418.020666.012054.030402.005026.009455.00976.019263.015359.028255.022073.033851.049503.063888.081215.088937.029497.023162.060971.043688.094061.061341.016238.008137.032208.017714.0488.024583l.049348.021837c.03294.01231.067356.025779.098526.036344.063025.022618.126379.045578.177008.076042.023277.013008.043626.030671.05978.051886.014735.020629.024133.044587.027352.069734.008833.0549.001098.12045-.009467.184804-.023034.130038-.058852.262017-.093939.393629-.036014.134748-.06466.273643-.071235.416931-.003707.072656-.000029.145501.01098.217414.011072.075853.037018.148772.076346.214571.021599.034955.049022.065956.081081.091658.051086.041009.114885.062898.180387.06189.010792-.00031.021559-.001194.032257-.002647l.015933-.00244c.005477-.001111.011163-.002623.016701-.004002.042655-.012059.081562-.034723.113093-.065879.060133-.059206.093207-.131564.115338-.20297.020771-.070761.032755-.14381.035684-.217499.004983-.143389-.009101-.286804-.041882-.426483-.00488-.024315-.01115-.048239-.016714-.072358-.006319-.023717-.012456-.048202-.018946-.071284l-.0386-.139579c-.025083-.092633-.051545-.185792-.066636-.275473-.006991-.044261-.010541-.088559-.002184-.121706.003582-.015638.010623-.030275.020606-.042834.011797-.013934.025737-.025901.041296-.035452.03815-.022811.078418-.041875.120242-.056925.04403-.016812.088889-.03294.134028-.048238s.090926-.029695.138518-.046958c.011894-.004282.023862-.008735.036331-.014261.006197-.002709.0122-.005051.018531-.008077l.019081-.009918c.003172-.001708.006319-.003245.009516-.005112l.009662-.006429c.006405-.004478.012871-.008394.019081-.013493.012841-.010483.024357-.022491.034294-.035758.009777-.013007.018132-.027023.024924-.041809l.007808-.021094c.002674-.006744.004847-.013676.006502-.02074.006701-.025968.011561-.052377.014543-.07903l.004026-.038088.00283-.036063.005649-.072126c.003871-.047433.007938-.094838.012199-.142214.074159.001537.14831.003229.222453.005075.002294.019886.004587.039845.006881.059706.004257.035173.005819.066941.0122.107774.011931.082885.059311.156487.129819.201664.030588.020244.062776.03796.096244.052972.031972.01429.063692.027381.095159.039271l.046946.017641.023179.00854.018813.007711c.022251.009542.041562.024836.055948.04431.013878.02118.022925.045154.026498.070222.005962.049067.005026.098726-.002781.147533-.007321.051666-.017623.102864-.030854.153341l-.015189.056875c-.005148.01985-.01098.039491-.015554.059511-.010004.039784-.018032.080154-.02523.120706-.01417.081769-.020705.164678-.01952.247657.000509.085018.014087.169452.04026.250342.013908.042683.034097.083056.059901.119791.014273.020108.031356.038066.050727.053325.005149.004002.01098.007698.016458.011456.0061.003452.012102.006905.018629.009918.006789.003076.013799.005637.020972.007662l.011199.002867.009943.001452c.027217.00411.055012.001966.081276-.006271.025438-.008475.048866-.022082.068832-.039979.018408-.016275.034404-.035089.047506-.055875.012483-.019294.023127-.039717.031793-.061.033891-.083118.044895-.168358.047896-.252062.002106-.083149-.00358-.166312-.016982-.248401-.00671-.040699-.014188-.081264-.023777-.121243-.004368-.020117-.00987-.039893-.01486-.059779l-.014957-.057339c-.022826-.090755-.04381-.183169-.047579-.27035-.00122-.043017.003062-.084179.018617-.113593.007739-.015073.018504-.028388.031622-.039113.015286-.012274.031969-.0227.049702-.03106.075469-.037442.177106-.056401.268544-.116192.024504-.015916.046568-.035304.065501-.057559.019938-.023712.034773-.05128.043578-.080983.007638-.026382.012616-.053463.014859-.080836l.007601-.085399c-.001147-.010285-.001403-.020948-.003294-.030939-.00331-.00989-.008845-.018888-.016177-.026303-.015857-.014988-.035013-.026041-.055924-.032269l-.01342-.00427-.009968-.002806c-.006539-.001696-.01309-.003428-.019519-.00488-.012859-.003038-.025376-.005429-.037905-.007796-.049861-.008942-.0986-.014822-.147326-.020007-.097306-.010053-.193978-.016665-.290552-.022351-.1499-.008637-.299398-.014749-.448626-.02002-.001538-.021268-.003364-.043858-.005478-.06777l.073504.001916c.081211.001781.162291.003119.243241.004013.162051.001428.323053.002172.485641-.004404.034355-.001549.068661-.003416.104309-.006978l.013542-.001501.007075-.000866.01203-.001732c.015674-.002013.031053-.005888.04581-.011541.006726-.002788.013039-.006482.018764-.01098.005714-.00422.010443-.009632.013859-.01586.003836-.006012.006467-.012712.007746-.019727.000708-.003819.001806-.007467.002184-.011432l-.000366-.012553.003331-.021655.000415-.002696.000134-.001464.000244-.002831.0005-.00566.001964-.022656c.00122-.015127.002989-.030145.004539-.045139.003062-.030146.006429-.060219.010455-.090169.007454-.060024.016945-.119559.027925-.178729s.02429-.117594.040101-.174909c.007922-.028646.016665-.05686.02623-.084643.00488-.013786.00976-.027572.015213-.040955.002575-.00682.005393-.01342.008211-.019971l.003038-.007113.004562-.009943.009468-.019593c.002339-.005051.004333-.010256.005965-.015579l.00244-.014408c.002196-.009259.00215-.018908-.000134-.028145Zm-4.985858.090987c-.013168-.046796-.029113-.092765-.04775-.137664l-.003453-.007881c.00011.000293.000098.000281,0,0l-.000525-.001049c-.000329-.000683-.000854-.001379-.000622-.002184.000513-.001635.00244-.001915.003904-.001903l.105004-.007247.120779-.006722c.080585-.003912.16125-.006832.241997-.008759.173946-.004189.347969-.004352.522069-.000488.086961.001964.17391.00488.260468.009454.043236.002306.086485.004978.128977.00854l.010297.000928.00122.000183c.001329-.000098.000341.001098.000183.001793l-.001452.005197-.00599.025913c-.004392.01919-.007796.037941-.011371.056827-.006612.037543-.012448.074887-.017506.112031-.010236.074419-.018813.148424-.026523.222428s-.014847.147948-.021447.221855l-.018044.209728c-.000146.001086,0,.001147-.00244.001428-.024229.003391-.050947.005502-.07753.007198-.05346.003318-.108018.004879-.162576.00599-.109237.002049-.219073.00183-.328908.000805s-.219818-.003062-.329788-.005649l-.164966-.004355-.037564-.00122c-.018458-.144239-.04126-.288015-.070186-.431083-.018629-.091609-.039576-.182937-.066257-.274094Zm1.284415,1.146508c-.001915.020154-.004001.04093-.007442.061646-.004724.041912-.016795.082664-.03566.120388-.038527.072711-.132478.110262-.223258.141909-.046432.015994-.094817.031378-.141165.052093-.046017.020277-.093463.047946-.12722.090706-.021749.028152-.036948.060797-.044493.095562-.007044.032204-.010234.06513-.009504.098087.001903.062008.009198.123732.021802.184474.011504.05989.025619.118778.040625.177399.015421.05912.030781.115533.043298.17358.026715.115307.04025.233275.040345.351637-.000055.057898-.007213.115571-.021314.171725-.006771.02662-.016742.052321-.029694.076542-.011358.022174-.027357.041643-.046909.057084-.017164.013448-.037909.021544-.059645.023277-.005565.000563-.011167.000673-.01675.000329l-.00854-.000341-.008735-.001342c-.002734-.000307-.00545-.000755-.008138-.001342-.00183-.000659-.003586-.000818-.005538-.001586l-.006003-.00244-.006307-.003441c-.019689-.013009-.03648-.029942-.049324-.049739-.015064-.022091-.027671-.045761-.0376-.070588-.020612-.052241-.034254-.106968-.040577-.162771-.006862-.057049-.008585-.114599-.005148-.171957.003257-.058011.010595-.115721.02196-.172702.010979-.057693.026327-.112665.042809-.172018.01586-.058559.031183-.117558.044505-.17763.014294-.06119.023818-.123397.028487-.18606.002243-.033524.000774-.067192-.00438-.100393-.010454-.073014-.051462-.138138-.112788-.179119-.027584-.018857-.05705-.034802-.087924-.047579-.030085-.012883-.058755-.022485-.087571-.033038-.028987-.009967-.057962-.019751-.0869-.029047-.028743-.009321-.057717-.0183-.084667-.027877-.024553-.007456-.047931-.01834-.069442-.03233-.016406-.012807-.028012-.030774-.032939-.050995-.006989-.026257-.011647-.053078-.01392-.080154l-.019179-.180448c-.006392-.059779-.012749-.119559-.01686-.178569-.001073-.01475-.00183-.029366-.00244-.04392l-.000585-.021545v-.019947c-.000048-.00451.000406-.009011.001354-.01342.000561-.002013.001525-.004782.004001-.004806l.006759.00017.020593.000586c.005661.050141.01098.100307.01558.150546l.000317.00316.000561.00427.00122.008613c.000898.005758.00212.01146.00366.01708.002893.011292.006889.022272.011932.032781.030806.064877.096233.106199.168053.106139l.205324-.004392c.271935-.004758.544114-.00732.814854.000598.007503.000244.014969.000622.022472.000878-.000732.006625-.001195.013408-.001952.020277Zm1.989068-.663369c-.016116.118839-.029999.237739-.042346.3567-.109506-.00183-.21917-.003343-.328347-.004709l-.608493-.006258c-.099893-.001098-.199176-.00227-.297677-.00438-.049239-.001086-.098368-.002355-.146814-.004478l-.036087-.001817-.031524-.00216c-.000891,0-.002538.00022-.002331-.00122l-.000109-.000512v-.000232l-.00033-.00327-.00244-.025827-.00488-.051605-.011541-.102991c-.008345-.068564-.017275-.13703-.02773-.205337-.020435-.133783-.046445-.275436-.077787-.408769v0c-.000195-.000829-.000414-.001659-.00061-.00244-.000463-.001988-.000915-.004026-.00139-.006026v0c-.021045-.089609-.044835-.178619-.0752-.267483l-.012835-.034538c-.004355-.011541-.009455-.023289-.014188-.034916-.000891-.001622-.002733-.00488-.000573-.00688.000894-.00095.002078-.001576.003367-.001782l.017189-.00405c.021704-.00488.043761-.009138.066038-.012932s.044725-.007137.067319-.010089l.03294-.00405c.001281-.000135.002586-.000354.003879-.000379.001093.000737.001942.001782.00244.003002l.002245.004733.006368.014494c.008443.019959.016422.041321.024559.063158l.012895.033904c.002513.006185.004575.011687.00904.02074.001808.00364.003875.007147.006186.010491l.001769.00244.000915.00122.001927.002257c.001326.001505.002725.002941.004197.004307s.003108.002725.00477.003953c.00204.001515.004175.002896.006393.004135.003199.001845.006595.003322.010126.004405.020122.006488.042183.001117.057071-.013896.002361-.002372.004493-.004962.006368-.007735.001692-.00246.003193-.005045.00449-.007735.000842-.00171.00158-.00347.002208-.00527l.001037-.003147c.000606-.002007.001111-.004043.001513-.0061l.0005-.003063.000476-.003928.000219-.002037.000439-.004099c.002034-.021474.005153-.042831.009345-.063989.003604-.019261.009063-.038129.016299-.056339.001708-.003733.003831-.008247.003563-.007576.000307-.000574.000676-.001114.001098-.00161.000744-.001106.002043-.001704.003367-.00155l.034745.000513h.002221c.000756.000134.000939.001073.00122.001683l.000719.002086.002965.010724c.012798.04836.023485.099356.035819.147094.005129.021507.011737.042635.019776.063232.005008.012778.012426.024475.02185.034452.00575.006099.012408.011272.019739.015336.003127.001459.006347.00271.009638.003745.004428.001633.008987.002886.013627.003745.005499-.001418.01086-.003324.016019-.005697l.00993-.004709c.00738-.003303.013824-.008388.018752-.014798.008325-.009894.014841-.021176.019251-.033331.007135-.020016.012467-.040631.015933-.061597.009162-.04836.015714-.101564.025742-.150693l.00244-.010919c.000185-.000692.000413-.001373.000683-.002037.000342-.001732.002074-.001732.003477-.001683l.028694-.001428.042517-.001708c.028352-.001098.056827-.001683.085265-.002318.056961-.00089.113983-.001403.171103-.000829.114199.000813.228504.003708.342914.008686.114362.005112.228736.011077.343048.019117.057169.00366.114301.008003.171445.012529l.04198.003258c.00146-.000002.00291.000233.004294.000695s.002344.001613.00266.003001-.000793.002635-.001342.00388l-.00244.004794-.00061.00122-.00122.003124-.002659.006661-.010541.026705c-.00721.017873-.011822.035063-.017824.052643s-.010114.034806-.015189.052215-.009626.034758-.013676.052094c-.017702.069405-.031586.138773-.045274.208227-.026657.138859-.048104.278084-.067014.417553Zm.380002.366485c-.00122-.010212-.00244-.020594-.003501-.030634-.001086-.010834-.001989-.021484-.002611-.03172l-.000208-.00327v-.000122-.000268c-.000122-.000427.000122-.000781.000562-.000683l.074602.00194c.003953.02324.007747.045786.011382.067404-.021081-.000716-.042171-.001436-.063268-.00216-.005661-.000195-.011346-.000292-.016958-.000487Zm.152059.211338c.00122-.025364.00122-.059523-.000317-.102479.066969.002196.133922.004603.200859.007222.135418.005661.271264.0122.405951.022619.067282.005307.134418.011517.199956.020618.032634.004599.065172.009967.095159.017275.007137.001793.015274.003977.02074.005819.001717.000539.00339.001212.005002.002013s.003143.001887.004209.003379c.000829.001696,0,.00366,0,.005405-.001822.019772-.003628.039381-.005417.058828-.001692.020368-.005415.040517-.011114.060145-.004676.015596-.012351.03013-.022594.042785l-.008089.009296c-.003009.003101-.006185.006033-.009516.008784-.006681.006158-.013863.011748-.021472.016714-.034334.021951-.071036.039958-.109408.05368-.03904.014518-.084179.028145-.128843.047238-.023604.009748-.046341.021477-.067966.035062-.024027.015146-.045402.034138-.063268.056217-.018146.022988-.031842.049162-.040382.077176-.007737.025859-.012385.052543-.013847.079495-.002025.049039.000988.098157.008992.146581.007027.046909.016469.092549.026839.137676.005149.022606.010785.044932.016348.067319l.016995.065794c.02193.084843.036558.171408.043724.258747.007658.085201.003359.171054-.012773.255063-.00772.038826-.021204.076279-.040004.111116-.008276.014996-.018598.028768-.03067.040919-.009691.009698-.021477.017044-.034453.021472-.011996.00352-.024689.00394-.036892.00122-.011356-.003584-.021602-.010024-.029756-.018703-.025458-.026866-.045048-.058737-.057522-.093585-.028653-.079154-.043-.162772-.04237-.24695-.000295-.087269.008326-.17434.025729-.259857.00854-.043139.019142-.086022.03083-.12866l.01808-.068039c.005294-.02307.010906-.045969.01586-.06921.004233-.023631.009759-.046579.012785-.07082l.005185-.036026.003367-.036917c.004988-.05255.001324-.105563-.010846-.156927-.007465-.029079-.019843-.05667-.036599-.081581-.018022-.025248-.040606-.046905-.066587-.063854-.00621-.004343-.012639-.00732-.018983-.01098-.006181-.003603-.012582-.006814-.019166-.009613l-.019191-.008138-.016201-.006246c-.021244-.007971-.042236-.016059-.062976-.024266-.040381-.015509-.079886-.033208-.118339-.05302-.033514-.01614-.063344-.03901-.087631-.067185l-.00732-.009833c-.002294-.00338-.004038-.007113-.006173-.01059-.004104-.007274-.007691-.014828-.010736-.022606-.002709-.008308-.005576-.016543-.007747-.025449-.001635-.009308-.004404-.017824-.005246-.027828-.00266-.017714-.004758-.043151-.00732-.065721l-.008015-.067319c.028466.000814.056932.001672.085399.002575.012627.071162.023546.124182.033842.148655.010212.024668.017422.010785.019898-.044505Zm1.061219-1.105675l-.002818.006539c-.003221.007503-.00643.015018-.009284.022546-.0061.015042-.011481.030145-.016861.045237-.010443.030239-.01989.060597-.02834.091072-.016877.06095-.030996.122182-.042358.183693-.011504.061476-.021399.123073-.029158.184755-.004209.030817-.007698.061671-.010919.092524-.001622.015433-.003501.030841-.004733.046274l-.003197.03599-.000329.004014c-.000097.00122,0,.002952-.0015.003379-.002516.000945-.005138.001576-.007808.001879l-.010687.001317-.017312.001708-.03538.002684c-.047726.002977-.096306.004453-.144837.00549-.097184.001928-.194685.00183-.292016.000989s-.194588-.002672-.291577-.005076l-.134748-.003782c-.012614-.116606-.028608-.238117-.049848-.362836-.013359-.079031-.028414-.159184-.047909-.240411-.00968-.042049-.021766-.083507-.036197-.12417l-.00122-.003282-.001013-.002208c-.000598-.00144-.001769-.002867-.00122-.004514.00122-.003331.00527-.00366.008272-.003868l.087717-.009833.103699-.008698.103967-.006002c.034623-.001867.069308-.00244.103809-.00366.154109-.00488.308901-.00266.463376.005929.077261.003952.154438.01004.23126.017519.019236.001813.038397.003847.057486.0061l.05213.006344c.003392.000744.007418.000183.010358.002513.001392.001206.001971.003102.001488.00488-.000683.00172-.00161.003281-.002293.004965Z" fill="#0094ff"/></g><clipPath id="enbQFJcdXjA12"><path d="M-7.076847,-0.089853h6.676847v3.861554h-6.676847Z"/></clipPath></g></g><clipPath id="enbQFJcdXjA14"><path d="M-7.076847,-0.089853h6.676847v3.861554h-6.676847Z"/></clipPath></g></g></svg>
